<mxfile host="app.diagrams.net" agent="Mozilla/5.0 (Linux; Android 10; K) AppleWebKit/537.36 (KHTML, like Gecko) Chrome/130.0.0.0 Safari/537.36" version="24.8.3" pages="4">
  <diagram id="hLJkpSyiMf8EgOvI3aOh" name="Atividade2">
    <mxGraphModel dx="1488" dy="509" grid="0" gridSize="10" guides="1" tooltips="1" connect="1" arrows="1" fold="1" page="0" pageScale="1" pageWidth="827" pageHeight="1169" math="0" shadow="0">
      <root>
        <mxCell id="0" />
        <mxCell id="1" parent="0" />
        <mxCell id="3fyPga2zVczpbdY5SgU2-6" style="edgeStyle=none;curved=1;rounded=0;orthogonalLoop=1;jettySize=auto;html=1;fontSize=12;startSize=8;endSize=8;endArrow=none;endFill=0;" edge="1" parent="1" source="3fyPga2zVczpbdY5SgU2-1" target="3fyPga2zVczpbdY5SgU2-3">
          <mxGeometry relative="1" as="geometry" />
        </mxCell>
        <mxCell id="3fyPga2zVczpbdY5SgU2-7" style="edgeStyle=none;curved=1;rounded=0;orthogonalLoop=1;jettySize=auto;html=1;fontSize=12;startSize=8;endSize=8;endArrow=none;endFill=0;" edge="1" parent="1" source="3fyPga2zVczpbdY5SgU2-1" target="3fyPga2zVczpbdY5SgU2-4">
          <mxGeometry relative="1" as="geometry" />
        </mxCell>
        <mxCell id="3fyPga2zVczpbdY5SgU2-8" style="edgeStyle=none;curved=1;rounded=0;orthogonalLoop=1;jettySize=auto;html=1;fontSize=12;startSize=8;endSize=8;endArrow=none;endFill=0;" edge="1" parent="1" source="3fyPga2zVczpbdY5SgU2-1" target="3fyPga2zVczpbdY5SgU2-5">
          <mxGeometry relative="1" as="geometry" />
        </mxCell>
        <mxCell id="3fyPga2zVczpbdY5SgU2-1" value="Aluno" style="shape=umlActor;html=1;verticalLabelPosition=bottom;verticalAlign=top;align=center;" vertex="1" parent="1">
          <mxGeometry x="-20" y="423" width="28" height="60" as="geometry" />
        </mxCell>
        <mxCell id="3fyPga2zVczpbdY5SgU2-12" style="edgeStyle=none;curved=1;rounded=0;orthogonalLoop=1;jettySize=auto;html=1;fontSize=12;startSize=8;endSize=8;endArrow=none;endFill=0;" edge="1" parent="1" source="3fyPga2zVczpbdY5SgU2-2" target="3fyPga2zVczpbdY5SgU2-9">
          <mxGeometry relative="1" as="geometry" />
        </mxCell>
        <mxCell id="3fyPga2zVczpbdY5SgU2-14" style="edgeStyle=none;curved=1;rounded=0;orthogonalLoop=1;jettySize=auto;html=1;fontSize=12;startSize=8;endSize=8;endArrow=none;endFill=0;" edge="1" parent="1" source="3fyPga2zVczpbdY5SgU2-2" target="3fyPga2zVczpbdY5SgU2-10">
          <mxGeometry relative="1" as="geometry" />
        </mxCell>
        <mxCell id="3fyPga2zVczpbdY5SgU2-15" style="edgeStyle=none;curved=1;rounded=0;orthogonalLoop=1;jettySize=auto;html=1;fontSize=12;startSize=8;endSize=8;endArrow=none;endFill=0;" edge="1" parent="1" source="3fyPga2zVczpbdY5SgU2-2" target="3fyPga2zVczpbdY5SgU2-11">
          <mxGeometry relative="1" as="geometry" />
        </mxCell>
        <mxCell id="3fyPga2zVczpbdY5SgU2-2" value="Bibliotecário" style="shape=umlActor;html=1;verticalLabelPosition=bottom;verticalAlign=top;align=center;" vertex="1" parent="1">
          <mxGeometry x="309" y="423" width="28" height="60" as="geometry" />
        </mxCell>
        <mxCell id="3fyPga2zVczpbdY5SgU2-3" value="Consultar catálogo&amp;nbsp;" style="ellipse;whiteSpace=wrap;html=1;" vertex="1" parent="1">
          <mxGeometry x="41" y="328" width="140" height="70" as="geometry" />
        </mxCell>
        <mxCell id="3fyPga2zVczpbdY5SgU2-4" value="Reservar livro&amp;nbsp;" style="ellipse;whiteSpace=wrap;html=1;" vertex="1" parent="1">
          <mxGeometry x="73" y="413" width="140" height="70" as="geometry" />
        </mxCell>
        <mxCell id="3fyPga2zVczpbdY5SgU2-5" value="Devolver livro" style="ellipse;whiteSpace=wrap;html=1;" vertex="1" parent="1">
          <mxGeometry x="67" y="529" width="140" height="70" as="geometry" />
        </mxCell>
        <mxCell id="3fyPga2zVczpbdY5SgU2-9" value="Cadastrar novos livros" style="ellipse;whiteSpace=wrap;html=1;" vertex="1" parent="1">
          <mxGeometry x="371" y="313" width="140" height="70" as="geometry" />
        </mxCell>
        <mxCell id="3fyPga2zVczpbdY5SgU2-10" value="Atualizar informações do inventário&amp;nbsp;" style="ellipse;whiteSpace=wrap;html=1;" vertex="1" parent="1">
          <mxGeometry x="441" y="390" width="140" height="70" as="geometry" />
        </mxCell>
        <mxCell id="3fyPga2zVczpbdY5SgU2-11" value="Gerenciar status de conservação dos materiais&amp;nbsp;" style="ellipse;whiteSpace=wrap;html=1;" vertex="1" parent="1">
          <mxGeometry x="441" y="480" width="140" height="70" as="geometry" />
        </mxCell>
        <mxCell id="3fyPga2zVczpbdY5SgU2-16" value="Verificar multa" style="ellipse;whiteSpace=wrap;html=1;" vertex="1" parent="1">
          <mxGeometry x="299" y="529" width="140" height="70" as="geometry" />
        </mxCell>
        <mxCell id="3fyPga2zVczpbdY5SgU2-18" value="&amp;lt;&amp;lt;include&amp;gt;&amp;gt;" style="edgeStyle=none;html=1;endArrow=open;verticalAlign=bottom;dashed=1;labelBackgroundColor=none;rounded=0;fontSize=12;startSize=8;endSize=8;curved=1;" edge="1" parent="1" source="3fyPga2zVczpbdY5SgU2-5" target="3fyPga2zVczpbdY5SgU2-16">
          <mxGeometry width="160" relative="1" as="geometry">
            <mxPoint x="298" y="551" as="sourcePoint" />
            <mxPoint x="549" y="500" as="targetPoint" />
          </mxGeometry>
        </mxCell>
        <mxCell id="3fyPga2zVczpbdY5SgU2-23" style="edgeStyle=none;curved=1;rounded=0;orthogonalLoop=1;jettySize=auto;html=1;fontSize=12;startSize=8;endSize=8;endArrow=none;endFill=0;" edge="1" parent="1" source="3fyPga2zVczpbdY5SgU2-21" target="3fyPga2zVczpbdY5SgU2-22">
          <mxGeometry relative="1" as="geometry">
            <Array as="points">
              <mxPoint x="773" y="448" />
            </Array>
          </mxGeometry>
        </mxCell>
        <mxCell id="3fyPga2zVczpbdY5SgU2-21" value="Sistema" style="shape=umlActor;html=1;verticalLabelPosition=bottom;verticalAlign=top;align=center;" vertex="1" parent="1">
          <mxGeometry x="662" y="418" width="28" height="60" as="geometry" />
        </mxCell>
        <mxCell id="3fyPga2zVczpbdY5SgU2-22" value="Enviar notificação&amp;nbsp;" style="ellipse;whiteSpace=wrap;html=1;" vertex="1" parent="1">
          <mxGeometry x="797" y="413" width="140" height="70" as="geometry" />
        </mxCell>
      </root>
    </mxGraphModel>
  </diagram>
  <diagram id="HuZ3I7ab58IUwoSfrN9r" name="Atividade1">
    <mxGraphModel dx="1851" dy="1079" grid="0" gridSize="10" guides="1" tooltips="1" connect="1" arrows="1" fold="1" page="0" pageScale="1" pageWidth="827" pageHeight="1169" math="0" shadow="0">
      <root>
        <mxCell id="0" />
        <mxCell id="1" parent="0" />
        <mxCell id="cCAgpgVcuDV5qwZlVPG9-2" style="edgeStyle=none;curved=1;rounded=0;orthogonalLoop=1;jettySize=auto;html=1;fontSize=12;startSize=8;endSize=8;endArrow=none;endFill=0;" edge="1" parent="1" source="ovU-sGe25U8Y36tOh-Sq-1" target="ovU-sGe25U8Y36tOh-Sq-3">
          <mxGeometry relative="1" as="geometry" />
        </mxCell>
        <mxCell id="cCAgpgVcuDV5qwZlVPG9-3" style="edgeStyle=none;curved=1;rounded=0;orthogonalLoop=1;jettySize=auto;html=1;fontSize=12;startSize=8;endSize=8;endArrow=none;endFill=0;" edge="1" parent="1" source="ovU-sGe25U8Y36tOh-Sq-1" target="ovU-sGe25U8Y36tOh-Sq-4">
          <mxGeometry relative="1" as="geometry" />
        </mxCell>
        <mxCell id="cCAgpgVcuDV5qwZlVPG9-4" style="edgeStyle=none;curved=1;rounded=0;orthogonalLoop=1;jettySize=auto;html=1;entryX=0;entryY=0;entryDx=0;entryDy=0;fontSize=12;startSize=8;endSize=8;endArrow=none;endFill=0;" edge="1" parent="1" source="ovU-sGe25U8Y36tOh-Sq-1" target="ovU-sGe25U8Y36tOh-Sq-5">
          <mxGeometry relative="1" as="geometry" />
        </mxCell>
        <mxCell id="cCAgpgVcuDV5qwZlVPG9-5" style="edgeStyle=none;curved=1;rounded=0;orthogonalLoop=1;jettySize=auto;html=1;fontSize=12;startSize=8;endSize=8;endArrow=none;endFill=0;" edge="1" parent="1" source="ovU-sGe25U8Y36tOh-Sq-1" target="cCAgpgVcuDV5qwZlVPG9-1">
          <mxGeometry relative="1" as="geometry" />
        </mxCell>
        <mxCell id="ovU-sGe25U8Y36tOh-Sq-1" value="Cliente" style="shape=umlActor;html=1;verticalLabelPosition=bottom;verticalAlign=top;align=center;" parent="1" vertex="1">
          <mxGeometry x="-144" y="126" width="30" height="60" as="geometry" />
        </mxCell>
        <mxCell id="cCAgpgVcuDV5qwZlVPG9-10" style="edgeStyle=none;curved=1;rounded=0;orthogonalLoop=1;jettySize=auto;html=1;fontSize=12;startSize=8;endSize=8;endArrow=none;endFill=0;" edge="1" parent="1" source="ovU-sGe25U8Y36tOh-Sq-2" target="cCAgpgVcuDV5qwZlVPG9-8">
          <mxGeometry relative="1" as="geometry" />
        </mxCell>
        <mxCell id="cCAgpgVcuDV5qwZlVPG9-11" style="edgeStyle=none;curved=1;rounded=0;orthogonalLoop=1;jettySize=auto;html=1;fontSize=12;startSize=8;endSize=8;endArrow=none;endFill=0;" edge="1" parent="1" target="cCAgpgVcuDV5qwZlVPG9-6">
          <mxGeometry relative="1" as="geometry">
            <mxPoint x="306" y="126" as="sourcePoint" />
          </mxGeometry>
        </mxCell>
        <mxCell id="cCAgpgVcuDV5qwZlVPG9-12" style="edgeStyle=none;curved=1;rounded=0;orthogonalLoop=1;jettySize=auto;html=1;fontSize=12;startSize=8;endSize=8;endArrow=none;endFill=0;" edge="1" parent="1" source="ovU-sGe25U8Y36tOh-Sq-2" target="cCAgpgVcuDV5qwZlVPG9-9">
          <mxGeometry relative="1" as="geometry" />
        </mxCell>
        <mxCell id="ovU-sGe25U8Y36tOh-Sq-2" value="Funcionário" style="shape=umlActor;html=1;verticalLabelPosition=bottom;verticalAlign=top;align=center;" parent="1" vertex="1">
          <mxGeometry x="291" y="126" width="30" height="60" as="geometry" />
        </mxCell>
        <mxCell id="ovU-sGe25U8Y36tOh-Sq-3" value="Pesquisar veículo" style="ellipse;whiteSpace=wrap;html=1;" parent="1" vertex="1">
          <mxGeometry x="-199" y="-3" width="140" height="70" as="geometry" />
        </mxCell>
        <mxCell id="ovU-sGe25U8Y36tOh-Sq-4" value="Reservar veículo&amp;nbsp;" style="ellipse;whiteSpace=wrap;html=1;" parent="1" vertex="1">
          <mxGeometry x="-59" y="67" width="140" height="70" as="geometry" />
        </mxCell>
        <mxCell id="ovU-sGe25U8Y36tOh-Sq-5" value="Cancelar reserva" style="ellipse;whiteSpace=wrap;html=1;" parent="1" vertex="1">
          <mxGeometry x="-57" y="183" width="140" height="70" as="geometry" />
        </mxCell>
        <mxCell id="cCAgpgVcuDV5qwZlVPG9-1" value="Alterar reserva&amp;nbsp;" style="ellipse;whiteSpace=wrap;html=1;" vertex="1" parent="1">
          <mxGeometry x="-197" y="253" width="140" height="70" as="geometry" />
        </mxCell>
        <mxCell id="cCAgpgVcuDV5qwZlVPG9-6" value="Confirmar reserva&amp;nbsp;" style="ellipse;whiteSpace=wrap;html=1;" vertex="1" parent="1">
          <mxGeometry x="236" y="2" width="140" height="70" as="geometry" />
        </mxCell>
        <mxCell id="cCAgpgVcuDV5qwZlVPG9-8" value="Disponibilizar detalhes do veículo&amp;nbsp;" style="ellipse;whiteSpace=wrap;html=1;" vertex="1" parent="1">
          <mxGeometry x="236" y="269" width="140" height="70" as="geometry" />
        </mxCell>
        <mxCell id="cCAgpgVcuDV5qwZlVPG9-9" value="Emitir documentação digital" style="ellipse;whiteSpace=wrap;html=1;" vertex="1" parent="1">
          <mxGeometry x="439" y="121" width="140" height="70" as="geometry" />
        </mxCell>
      </root>
    </mxGraphModel>
  </diagram>
  <diagram id="jKVvvGtiHw6fZ7ugP9HS" name="Atividade3">
    <mxGraphModel dx="1248" dy="909" grid="0" gridSize="10" guides="1" tooltips="1" connect="1" arrows="1" fold="1" page="0" pageScale="1" pageWidth="827" pageHeight="1169" background="#ffffff" math="1" shadow="0">
      <root>
        <mxCell id="0" />
        <mxCell id="1" parent="0" />
        <mxCell id="3aDQJt0psLteMtOHB1U0-2" value="Fazer pedidos" style="ellipse;whiteSpace=wrap;html=1;" parent="1" vertex="1">
          <mxGeometry x="-110" y="151" width="140" height="70" as="geometry" />
        </mxCell>
        <mxCell id="mBEwwfKis-226-C0g3F_-1" value="Fazer reserva&amp;nbsp;" style="ellipse;whiteSpace=wrap;html=1;" parent="1" vertex="1">
          <mxGeometry x="-252" y="15" width="140" height="70" as="geometry" />
        </mxCell>
        <mxCell id="Q50oU-S23X-eVWD9xjc6-3" style="edgeStyle=none;curved=1;rounded=0;orthogonalLoop=1;jettySize=auto;html=1;fontSize=12;startSize=8;endSize=8;endArrow=none;endFill=0;" parent="1" source="mBEwwfKis-226-C0g3F_-2" target="mBEwwfKis-226-C0g3F_-1" edge="1">
          <mxGeometry relative="1" as="geometry" />
        </mxCell>
        <mxCell id="3aDQJt0psLteMtOHB1U0-17" style="edgeStyle=none;curved=1;rounded=0;orthogonalLoop=1;jettySize=auto;html=1;fontSize=12;startSize=8;endSize=8;endArrow=none;endFill=0;" parent="1" target="3aDQJt0psLteMtOHB1U0-2" edge="1">
          <mxGeometry relative="1" as="geometry">
            <mxPoint x="-147" y="181" as="sourcePoint" />
          </mxGeometry>
        </mxCell>
        <mxCell id="mBEwwfKis-226-C0g3F_-2" value="Cliente" style="shape=umlActor;html=1;verticalLabelPosition=bottom;verticalAlign=top;align=center;" parent="1" vertex="1">
          <mxGeometry x="-197" y="143" width="30" height="60" as="geometry" />
        </mxCell>
        <mxCell id="Q50oU-S23X-eVWD9xjc6-1" value="&amp;lt;&amp;lt;include&amp;gt;&amp;gt;" style="edgeStyle=none;html=1;endArrow=open;verticalAlign=bottom;dashed=1;labelBackgroundColor=none;rounded=0;fontSize=12;startSize=8;endSize=8;curved=1;entryX=0;entryY=0.5;entryDx=0;entryDy=0;" parent="1" target="Q50oU-S23X-eVWD9xjc6-2" edge="1">
          <mxGeometry width="160" relative="1" as="geometry">
            <mxPoint x="-112" y="45" as="sourcePoint" />
            <mxPoint x="64" y="45" as="targetPoint" />
          </mxGeometry>
        </mxCell>
        <mxCell id="Q50oU-S23X-eVWD9xjc6-2" value="Verificar disponibilidade de mesas" style="ellipse;whiteSpace=wrap;html=1;" parent="1" vertex="1">
          <mxGeometry x="-11" y="10" width="140" height="70" as="geometry" />
        </mxCell>
        <mxCell id="3aDQJt0psLteMtOHB1U0-3" value="&amp;lt;&amp;lt;include&amp;gt;&amp;gt;" style="edgeStyle=none;html=1;endArrow=open;verticalAlign=bottom;dashed=1;labelBackgroundColor=none;rounded=0;fontSize=12;startSize=8;endSize=8;curved=1;" parent="1" source="3aDQJt0psLteMtOHB1U0-2" target="3aDQJt0psLteMtOHB1U0-7" edge="1">
          <mxGeometry width="160" relative="1" as="geometry">
            <mxPoint x="120" y="96" as="sourcePoint" />
            <mxPoint x="127" y="186" as="targetPoint" />
          </mxGeometry>
        </mxCell>
        <mxCell id="3aDQJt0psLteMtOHB1U0-7" value="Verificar disponibilidade no estoque&amp;nbsp;" style="ellipse;whiteSpace=wrap;html=1;" parent="1" vertex="1">
          <mxGeometry x="115" y="151" width="140" height="70" as="geometry" />
        </mxCell>
        <mxCell id="3aDQJt0psLteMtOHB1U0-16" style="edgeStyle=none;curved=1;rounded=0;orthogonalLoop=1;jettySize=auto;html=1;fontSize=12;startSize=8;endSize=8;endArrow=none;endFill=0;" parent="1" source="3aDQJt0psLteMtOHB1U0-11" target="3aDQJt0psLteMtOHB1U0-12" edge="1">
          <mxGeometry relative="1" as="geometry" />
        </mxCell>
        <mxCell id="3aDQJt0psLteMtOHB1U0-23" style="edgeStyle=none;curved=1;rounded=0;orthogonalLoop=1;jettySize=auto;html=1;fontSize=12;startSize=8;endSize=8;endArrow=none;endFill=0;" parent="1" source="3aDQJt0psLteMtOHB1U0-11" target="3aDQJt0psLteMtOHB1U0-22" edge="1">
          <mxGeometry relative="1" as="geometry" />
        </mxCell>
        <mxCell id="c6eCU10CAVaqC5zSqLSz-20" style="edgeStyle=none;curved=1;rounded=0;orthogonalLoop=1;jettySize=auto;html=1;fontSize=12;startSize=8;endSize=8;" parent="1" source="3aDQJt0psLteMtOHB1U0-11" target="c6eCU10CAVaqC5zSqLSz-19" edge="1">
          <mxGeometry relative="1" as="geometry" />
        </mxCell>
        <mxCell id="3aDQJt0psLteMtOHB1U0-11" value="Funcionário&amp;nbsp;" style="shape=umlActor;html=1;verticalLabelPosition=bottom;verticalAlign=top;align=center;" parent="1" vertex="1">
          <mxGeometry x="348" y="113" width="30" height="60" as="geometry" />
        </mxCell>
        <mxCell id="3aDQJt0psLteMtOHB1U0-12" value="Gerenciar reservas&amp;nbsp;" style="ellipse;whiteSpace=wrap;html=1;" parent="1" vertex="1">
          <mxGeometry x="293" y="-30" width="140" height="70" as="geometry" />
        </mxCell>
        <mxCell id="3aDQJt0psLteMtOHB1U0-22" value="Controlar estoque&amp;nbsp;" style="ellipse;whiteSpace=wrap;html=1;" parent="1" vertex="1">
          <mxGeometry x="506" y="108" width="140" height="70" as="geometry" />
        </mxCell>
        <mxCell id="c6eCU10CAVaqC5zSqLSz-19" value="Atualizar quantidade de ingredientes" style="ellipse;whiteSpace=wrap;html=1;" parent="1" vertex="1">
          <mxGeometry x="303" y="345" width="120" height="80" as="geometry" />
        </mxCell>
        <mxCell id="c6eCU10CAVaqC5zSqLSz-25" value="&amp;lt;&amp;lt;include&amp;gt;&amp;gt;" style="edgeStyle=none;html=1;endArrow=open;verticalAlign=bottom;dashed=1;labelBackgroundColor=none;rounded=0;fontSize=12;startSize=8;endSize=8;curved=1;exitX=1;exitY=0.5;exitDx=0;exitDy=0;" parent="1" source="3aDQJt0psLteMtOHB1U0-12" target="c6eCU10CAVaqC5zSqLSz-24" edge="1">
          <mxGeometry x="0.1063" y="6" width="160" relative="1" as="geometry">
            <mxPoint x="411" y="-146" as="sourcePoint" />
            <mxPoint x="571" y="-146" as="targetPoint" />
            <mxPoint as="offset" />
          </mxGeometry>
        </mxCell>
        <mxCell id="c6eCU10CAVaqC5zSqLSz-24" value="Adicionar sugestão de acompanhamento opcionalmente&amp;nbsp;" style="ellipse;whiteSpace=wrap;html=1;" parent="1" vertex="1">
          <mxGeometry x="567" y="-35" width="120" height="80" as="geometry" />
        </mxCell>
      </root>
    </mxGraphModel>
  </diagram>
  <diagram id="iWTaJGXB0B_0cH0YZANi" name="Atividade4">
    <mxGraphModel dx="1305" dy="783" grid="1" gridSize="10" guides="1" tooltips="1" connect="1" arrows="1" fold="1" page="1" pageScale="1" pageWidth="827" pageHeight="1169" math="1" shadow="0">
      <root>
        <mxCell id="0" />
        <mxCell id="1" parent="0" />
        <mxCell id="LhJD46t-HuWQwJHJD33d-5" style="edgeStyle=none;curved=1;rounded=0;orthogonalLoop=1;jettySize=auto;html=1;fontSize=12;startSize=8;endSize=8;endArrow=none;endFill=0;" edge="1" parent="1" source="LhJD46t-HuWQwJHJD33d-1">
          <mxGeometry relative="1" as="geometry">
            <mxPoint x="187" y="112" as="targetPoint" />
          </mxGeometry>
        </mxCell>
        <mxCell id="LhJD46t-HuWQwJHJD33d-9" style="edgeStyle=none;curved=1;rounded=0;orthogonalLoop=1;jettySize=auto;html=1;fontSize=12;startSize=8;endSize=8;strokeWidth=1;endArrow=none;endFill=0;" edge="1" parent="1" source="LhJD46t-HuWQwJHJD33d-1" target="LhJD46t-HuWQwJHJD33d-7">
          <mxGeometry relative="1" as="geometry" />
        </mxCell>
        <mxCell id="LhJD46t-HuWQwJHJD33d-1" value="Alunos" style="shape=umlActor;html=1;verticalLabelPosition=bottom;verticalAlign=top;align=center;" vertex="1" parent="1">
          <mxGeometry x="80" y="140" width="30" height="60" as="geometry" />
        </mxCell>
        <mxCell id="LhJD46t-HuWQwJHJD33d-3" value="Consultar cronograma" style="ellipse;whiteSpace=wrap;html=1;" vertex="1" parent="1">
          <mxGeometry x="160" y="50" width="140" height="70" as="geometry" />
        </mxCell>
        <mxCell id="LhJD46t-HuWQwJHJD33d-7" value="Agendar treinos e verificar planos" style="ellipse;whiteSpace=wrap;html=1;" vertex="1" parent="1">
          <mxGeometry x="200" y="130" width="140" height="70" as="geometry" />
        </mxCell>
        <mxCell id="LhJD46t-HuWQwJHJD33d-10" value="Receber notificações&amp;nbsp;" style="ellipse;whiteSpace=wrap;html=1;" vertex="1" parent="1">
          <mxGeometry x="440" y="130" width="140" height="70" as="geometry" />
        </mxCell>
        <mxCell id="WjMo1EVYCKS-dBKNKhpq-1" value="&amp;lt;&amp;lt;extend&amp;gt;&amp;gt;" style="edgeStyle=none;html=1;startArrow=open;endArrow=none;startSize=12;verticalAlign=bottom;dashed=1;labelBackgroundColor=none;rounded=0;fontSize=12;curved=1;entryX=0;entryY=0.5;entryDx=0;entryDy=0;exitX=1;exitY=0.5;exitDx=0;exitDy=0;" edge="1" parent="1" source="LhJD46t-HuWQwJHJD33d-7" target="LhJD46t-HuWQwJHJD33d-10">
          <mxGeometry width="160" relative="1" as="geometry">
            <mxPoint x="360" y="210" as="sourcePoint" />
            <mxPoint x="520" y="210" as="targetPoint" />
          </mxGeometry>
        </mxCell>
        <mxCell id="WjMo1EVYCKS-dBKNKhpq-5" style="edgeStyle=none;curved=1;rounded=0;orthogonalLoop=1;jettySize=auto;html=1;fontSize=12;startSize=8;endSize=8;endArrow=none;endFill=0;" edge="1" parent="1" source="WjMo1EVYCKS-dBKNKhpq-3" target="WjMo1EVYCKS-dBKNKhpq-4">
          <mxGeometry relative="1" as="geometry" />
        </mxCell>
        <mxCell id="WjMo1EVYCKS-dBKNKhpq-14" style="edgeStyle=none;curved=1;rounded=0;orthogonalLoop=1;jettySize=auto;html=1;entryX=0;entryY=0.5;entryDx=0;entryDy=0;fontSize=12;startSize=8;endSize=8;endArrow=none;endFill=0;" edge="1" parent="1" source="WjMo1EVYCKS-dBKNKhpq-3" target="WjMo1EVYCKS-dBKNKhpq-12">
          <mxGeometry relative="1" as="geometry" />
        </mxCell>
        <mxCell id="WjMo1EVYCKS-dBKNKhpq-18" style="edgeStyle=none;curved=1;rounded=0;orthogonalLoop=1;jettySize=auto;html=1;entryX=0.5;entryY=0;entryDx=0;entryDy=0;fontSize=12;startSize=8;endSize=8;endArrow=none;endFill=0;" edge="1" parent="1" source="WjMo1EVYCKS-dBKNKhpq-3" target="WjMo1EVYCKS-dBKNKhpq-8">
          <mxGeometry relative="1" as="geometry" />
        </mxCell>
        <mxCell id="WjMo1EVYCKS-dBKNKhpq-19" style="edgeStyle=none;curved=1;rounded=0;orthogonalLoop=1;jettySize=auto;html=1;entryX=0;entryY=0.5;entryDx=0;entryDy=0;fontSize=12;startSize=8;endSize=8;endArrow=none;endFill=0;" edge="1" parent="1" source="WjMo1EVYCKS-dBKNKhpq-3" target="WjMo1EVYCKS-dBKNKhpq-7">
          <mxGeometry relative="1" as="geometry" />
        </mxCell>
        <mxCell id="WjMo1EVYCKS-dBKNKhpq-3" value="Funcionário&amp;nbsp;" style="shape=umlActor;html=1;verticalLabelPosition=bottom;verticalAlign=top;align=center;" vertex="1" parent="1">
          <mxGeometry x="80" y="300" width="30" height="60" as="geometry" />
        </mxCell>
        <mxCell id="WjMo1EVYCKS-dBKNKhpq-4" value="Gerenciar a frequência dos alunos nas aulas&amp;nbsp;" style="ellipse;whiteSpace=wrap;html=1;" vertex="1" parent="1">
          <mxGeometry x="190" y="230" width="140" height="70" as="geometry" />
        </mxCell>
        <mxCell id="WjMo1EVYCKS-dBKNKhpq-7" value="Cadastrar novos alunos" style="ellipse;whiteSpace=wrap;html=1;" vertex="1" parent="1">
          <mxGeometry x="230" y="410" width="140" height="70" as="geometry" />
        </mxCell>
        <mxCell id="WjMo1EVYCKS-dBKNKhpq-8" value="Gerenciar agendamentos para garantir o limite de vaga&amp;nbsp;" style="ellipse;whiteSpace=wrap;html=1;" vertex="1" parent="1">
          <mxGeometry x="40" y="490" width="150" height="70" as="geometry" />
        </mxCell>
        <mxCell id="WjMo1EVYCKS-dBKNKhpq-12" value="Cadastrar alunos em atividades extras" style="ellipse;whiteSpace=wrap;html=1;" vertex="1" parent="1">
          <mxGeometry x="230" y="320" width="140" height="70" as="geometry" />
        </mxCell>
      </root>
    </mxGraphModel>
  </diagram>
</mxfile>
